<svg viewBox="0 0 800 500" xmlns="http://www.w3.org/2000/svg" font-family="'Georgia', serif">
  <!-- Background -->
  <rect width="800" height="500" fill="#0f1117"/>

  <!-- Title -->
  <text x="400" y="36" text-anchor="middle" font-size="18" font-weight="bold" fill="#e2e8f0" letter-spacing="2">POSITIONAL ENCODING</text>
  <line x1="160" y1="46" x2="640" y2="46" stroke="#4a5568" stroke-width="1"/>
  <text x="400" y="64" text-anchor="middle" font-size="11" fill="#718096">PE(pos, 2i) = sin(pos / 10000^(2i/d_model))     PE(pos, 2i+1) = cos(pos / 10000^(2i/d_model))</text>

  <!-- ===== LEFT: Token embedding + PE diagram ===== -->
  <text x="160" y="95" text-anchor="middle" font-size="11" fill="#a0aec0" letter-spacing="1">ADDING POSITION TO EMBEDDING</text>

  <!-- Token embedding boxes -->
  <rect x="30" y="108" width="90" height="36" rx="6" fill="#2d3748" stroke="#4299e1" stroke-width="1.5"/>
  <text x="75" y="131" text-anchor="middle" font-size="12" fill="#90cdf4">"cat" → [0.2, 0.8...]</text>
  
  <rect x="30" y="154" width="90" height="36" rx="6" fill="#2d3748" stroke="#4299e1" stroke-width="1.5"/>
  <text x="75" y="177" text-anchor="middle" font-size="12" fill="#90cdf4">"sat" → [0.5, 0.1...]</text>

  <!-- Plus sign -->
  <text x="135" y="200" text-anchor="middle" font-size="24" fill="#f6ad55">+</text>

  <!-- PE boxes -->
  <rect x="148" y="108" width="90" height="36" rx="6" fill="#2d3748" stroke="#f6ad55" stroke-width="1.5"/>
  <text x="193" y="125" text-anchor="middle" font-size="10" fill="#f6ad55">PE(pos=1)</text>
  <text x="193" y="139" text-anchor="middle" font-size="10" fill="#a0aec0">[sin, cos, sin...]</text>
  
  <rect x="148" y="154" width="90" height="36" rx="6" fill="#2d3748" stroke="#f6ad55" stroke-width="1.5"/>
  <text x="193" y="171" text-anchor="middle" font-size="10" fill="#f6ad55">PE(pos=2)</text>
  <text x="193" y="185" text-anchor="middle" font-size="10" fill="#a0aec0">[sin, cos, sin...]</text>

  <!-- Equals -->
  <text x="253" y="200" text-anchor="middle" font-size="24" fill="#48bb78">=</text>

  <!-- Output boxes -->
  <rect x="266" y="108" width="90" height="36" rx="6" fill="#1a202c" stroke="#48bb78" stroke-width="2"/>
  <text x="311" y="125" text-anchor="middle" font-size="10" fill="#68d391">positioned "cat"</text>
  <text x="311" y="139" text-anchor="middle" font-size="10" fill="#a0aec0">[0.2+sin, 0.8+cos...]</text>

  <rect x="266" y="154" width="90" height="36" rx="6" fill="#1a202c" stroke="#48bb78" stroke-width="2"/>
  <text x="311" y="171" text-anchor="middle" font-size="10" fill="#68d391">positioned "sat"</text>
  <text x="311" y="185" text-anchor="middle" font-size="10" fill="#a0aec0">[0.5+sin, 0.1+cos...]</text>

  <!-- Why label -->
  <rect x="30" y="210" width="326" height="50" rx="6" fill="#1a202c" stroke="#4a5568" stroke-width="1"/>
  <text x="193" y="228" text-anchor="middle" font-size="10" fill="#a0aec0">⚠  Without PE, "cat sat" = "sat cat" (order-blind)</text>
  <text x="193" y="246" text-anchor="middle" font-size="10" fill="#68d391">✓  With PE, each position gets a unique sinusoidal signature</text>

  <!-- ===== RIGHT: Heatmap of PE values ===== -->
  <text x="590" y="95" text-anchor="middle" font-size="11" fill="#a0aec0" letter-spacing="1">PE HEATMAP (positions × dimensions)</text>

  <!-- Axis labels -->
  <text x="380" y="270" font-size="9" fill="#718096" transform="rotate(-90,380,270)">Position (token index) →</text>
  <text x="590" y="370" text-anchor="middle" font-size="9" fill="#718096">Embedding dimension →</text>

  <!-- Heatmap grid: 12 positions x 16 dims -->
  <!-- We'll draw a 12x16 grid of colored cells representing sin/cos values -->
  <!-- Colors: dark blue = -1, white = 0, orange = +1 -->
  
  <!-- Pre-computed approximate sin/cos pattern (alternating sin/cos by dim) -->
  <!-- pos 0: sin(0)=0, cos(0)=1, repeating -->
  <!-- Higher positions: varying frequencies -->
  
  <!-- Row labels (positions) -->
  <text x="390" y="115" text-anchor="end" font-size="8" fill="#a0aec0">0</text>
  <text x="390" y="135" text-anchor="end" font-size="8" fill="#a0aec0">1</text>
  <text x="390" y="155" text-anchor="end" font-size="8" fill="#a0aec0">2</text>
  <text x="390" y="175" text-anchor="end" font-size="8" fill="#a0aec0">3</text>
  <text x="390" y="195" text-anchor="end" font-size="8" fill="#a0aec0">4</text>
  <text x="390" y="215" text-anchor="end" font-size="8" fill="#a0aec0">5</text>
  <text x="390" y="235" text-anchor="end" font-size="8" fill="#a0aec0">6</text>
  <text x="390" y="255" text-anchor="end" font-size="8" fill="#a0aec0">7</text>
  <text x="390" y="275" text-anchor="end" font-size="8" fill="#a0aec0">8</text>
  <text x="390" y="295" text-anchor="end" font-size="8" fill="#a0aec0">9</text>
  <text x="390" y="315" text-anchor="end" font-size="8" fill="#a0aec0">10</text>
  <text x="390" y="335" text-anchor="end" font-size="8" fill="#a0aec0">11</text>

  <!-- Heatmap cells (12 rows x 16 cols = 192 cells) -->
  <!-- Color mapping: sin/cos values mapped to blue(-1) → white(0) → orange(+1) -->
  <!-- Row 0: pos=0, sin(0)=0 for all, cos(0)=1 for all even dims -->
  <!-- Using approximate visual pattern based on actual PE behavior -->
  
  <!-- Helper: define colors for values: -1=#1a4a7a, 0=#4a5568, +1=#f6ad55 -->
  
  <!-- Row 0 (pos=0) -->
  <rect x="392" y="105" width="18" height="18" fill="#4a5568"/><!-- sin(0)=0 -->
  <rect x="412" y="105" width="18" height="18" fill="#f6ad55"/><!-- cos(0)=1 -->
  <rect x="432" y="105" width="18" height="18" fill="#4a5568"/>
  <rect x="452" y="105" width="18" height="18" fill="#f6ad55"/>
  <rect x="472" y="105" width="18" height="18" fill="#4a5568"/>
  <rect x="492" y="105" width="18" height="18" fill="#f6ad55"/>
  <rect x="512" y="105" width="18" height="18" fill="#4a5568"/>
  <rect x="532" y="105" width="18" height="18" fill="#f6ad55"/>
  <rect x="552" y="105" width="18" height="18" fill="#4a5568"/>
  <rect x="572" y="105" width="18" height="18" fill="#f6ad55"/>
  <rect x="592" y="105" width="18" height="18" fill="#4a5568"/>
  <rect x="612" y="105" width="18" height="18" fill="#f6ad55"/>
  <rect x="632" y="105" width="18" height="18" fill="#4a5568"/>
  <rect x="652" y="105" width="18" height="18" fill="#f6ad55"/>
  <rect x="672" y="105" width="18" height="18" fill="#4a5568"/>
  <rect x="692" y="105" width="18" height="18" fill="#f6ad55"/>

  <!-- Row 1 (pos=1): sin(1)≈0.84, cos(1)≈0.54, then slower freqs -->
  <rect x="392" y="125" width="18" height="18" fill="#e8965a"/>
  <rect x="412" y="125" width="18" height="18" fill="#8a9bb0"/>
  <rect x="432" y="125" width="18" height="18" fill="#c4855a"/>
  <rect x="452" y="125" width="18" height="18" fill="#b0b8c4"/>
  <rect x="472" y="125" width="18" height="18" fill="#7a9aad"/>
  <rect x="492" y="125" width="18" height="18" fill="#e0a060"/>
  <rect x="512" y="125" width="18" height="18" fill="#5d7a94"/>
  <rect x="532" y="125" width="18" height="18" fill="#f0b060"/>
  <rect x="552" y="125" width="18" height="18" fill="#4a6080"/>
  <rect x="572" y="125" width="18" height="18" fill="#f6ad55"/>
  <rect x="592" y="125" width="18" height="18" fill="#4a6080"/>
  <rect x="612" y="125" width="18" height="18" fill="#f6ad55"/>
  <rect x="632" y="125" width="18" height="18" fill="#4a5568"/>
  <rect x="652" y="125" width="18" height="18" fill="#f6ad55"/>
  <rect x="672" y="125" width="18" height="18" fill="#4a5568"/>
  <rect x="692" y="125" width="18" height="18" fill="#f6ad55"/>

  <!-- Row 2 (pos=2): sin(2)≈0.91, cos(2)≈-0.42 -->
  <rect x="392" y="145" width="18" height="18" fill="#f0a850"/>
  <rect x="412" y="145" width="18" height="18" fill="#2a4060"/>
  <rect x="432" y="145" width="18" height="18" fill="#d89050"/>
  <rect x="452" y="145" width="18" height="18" fill="#5a7090"/>
  <rect x="472" y="145" width="18" height="18" fill="#8090a8"/>
  <rect x="492" y="145" width="18" height="18" fill="#d08040"/>
  <rect x="512" y="145" width="18" height="18" fill="#607890"/>
  <rect x="532" y="145" width="18" height="18" fill="#e09848"/>
  <rect x="552" y="145" width="18" height="18" fill="#4a5880"/>
  <rect x="572" y="145" width="18" height="18" fill="#f0a850"/>
  <rect x="592" y="145" width="18" height="18" fill="#4a5568"/>
  <rect x="612" y="145" width="18" height="18" fill="#f4ab52"/>
  <rect x="632" y="145" width="18" height="18" fill="#4a5568"/>
  <rect x="652" y="145" width="18" height="18" fill="#f6ad55"/>
  <rect x="672" y="145" width="18" height="18" fill="#4a5568"/>
  <rect x="692" y="145" width="18" height="18" fill="#f6ad55"/>

  <!-- Rows 3-11: continuing pattern with more variation in early dims, stability in later -->
  <!-- Row 3 -->
  <rect x="392" y="165" width="18" height="18" fill="#c07040"/>
  <rect x="412" y="165" width="18" height="18" fill="#1a3050"/>
  <rect x="432" y="165" width="18" height="18" fill="#f0a050"/>
  <rect x="452" y="165" width="18" height="18" fill="#3a5070"/>
  <rect x="472" y="165" width="18" height="18" fill="#9090a0"/>
  <rect x="492" y="165" width="18" height="18" fill="#b07038"/>
  <rect x="512" y="165" width="18" height="18" fill="#6888a0"/>
  <rect x="532" y="165" width="18" height="18" fill="#d88840"/>
  <rect x="552" y="165" width="18" height="18" fill="#507090"/>
  <rect x="572" y="165" width="18" height="18" fill="#f0a850"/>
  <rect x="592" y="165" width="18" height="18" fill="#4a5568"/>
  <rect x="612" y="165" width="18" height="18" fill="#f4ab52"/>
  <rect x="632" y="165" width="18" height="18" fill="#4a5568"/>
  <rect x="652" y="165" width="18" height="18" fill="#f5ac54"/>
  <rect x="672" y="165" width="18" height="18" fill="#4a5568"/>
  <rect x="692" y="165" width="18" height="18" fill="#f6ad55"/>

  <!-- Row 4 -->
  <rect x="392" y="185" width="18" height="18" fill="#4a3858"/>
  <rect x="412" y="185" width="18" height="18" fill="#2a5878"/>
  <rect x="432" y="185" width="18" height="18" fill="#c07840"/>
  <rect x="452" y="185" width="18" height="18" fill="#2a4868"/>
  <rect x="472" y="185" width="18" height="18" fill="#9898a8"/>
  <rect x="492" y="185" width="18" height="18" fill="#987028"/>
  <rect x="512" y="185" width="18" height="18" fill="#7090a8"/>
  <rect x="532" y="185" width="18" height="18" fill="#c88038"/>
  <rect x="552" y="185" width="18" height="18" fill="#5878a0"/>
  <rect x="572" y="185" width="18" height="18" fill="#f0a848"/>
  <rect x="592" y="185" width="18" height="18" fill="#4a5570"/>
  <rect x="612" y="185" width="18" height="18" fill="#f3aa50"/>
  <rect x="632" y="185" width="18" height="18" fill="#4a5568"/>
  <rect x="652" y="185" width="18" height="18" fill="#f5ab52"/>
  <rect x="672" y="185" width="18" height="18" fill="#4a5568"/>
  <rect x="692" y="185" width="18" height="18" fill="#f6ad55"/>

  <!-- Row 5 -->
  <rect x="392" y="205" width="18" height="18" fill="#1a2840"/>
  <rect x="412" y="205" width="18" height="18" fill="#507898"/>
  <rect x="432" y="205" width="18" height="18" fill="#706040"/>
  <rect x="452" y="205" width="18" height="18" fill="#1a3860"/>
  <rect x="472" y="205" width="18" height="18" fill="#9ea0a8"/>
  <rect x="492" y="205" width="18" height="18" fill="#805818"/>
  <rect x="512" y="205" width="18" height="18" fill="#7898b0"/>
  <rect x="532" y="205" width="18" height="18" fill="#b87830"/>
  <rect x="552" y="205" width="18" height="18" fill="#6080a0"/>
  <rect x="572" y="205" width="18" height="18" fill="#e8a040"/>
  <rect x="592" y="205" width="18" height="18" fill="#4c5870"/>
  <rect x="612" y="205" width="18" height="18" fill="#f2a84e"/>
  <rect x="632" y="205" width="18" height="18" fill="#4a5568"/>
  <rect x="652" y="205" width="18" height="18" fill="#f5aa52"/>
  <rect x="672" y="205" width="18" height="18" fill="#4a5568"/>
  <rect x="692" y="205" width="18" height="18" fill="#f6ad55"/>

  <!-- Row 6 -->
  <rect x="392" y="225" width="18" height="18" fill="#2a4050"/>
  <rect x="412" y="225" width="18" height="18" fill="#6888a8"/>
  <rect x="432" y="225" width="18" height="18" fill="#404850"/>
  <rect x="452" y="225" width="18" height="18" fill="#1a4070"/>
  <rect x="472" y="225" width="18" height="18" fill="#a0a0a8"/>
  <rect x="492" y="225" width="18" height="18" fill="#684808"/>
  <rect x="512" y="225" width="18" height="18" fill="#80a0b8"/>
  <rect x="532" y="225" width="18" height="18" fill="#a87028"/>
  <rect x="552" y="225" width="18" height="18" fill="#6888a8"/>
  <rect x="572" y="225" width="18" height="18" fill="#e09838"/>
  <rect x="592" y="225" width="18" height="18" fill="#4e5a72"/>
  <rect x="612" y="225" width="18" height="18" fill="#f1a74c"/>
  <rect x="632" y="225" width="18" height="18" fill="#4a5568"/>
  <rect x="652" y="225" width="18" height="18" fill="#f5a950"/>
  <rect x="672" y="225" width="18" height="18" fill="#4a5568"/>
  <rect x="692" y="225" width="18" height="18" fill="#f6ad55"/>

  <!-- Rows 7-11: later dims become very stable (near-constant cos≈1) -->
  <!-- Row 7 -->
  <rect x="392" y="245" width="18" height="18" fill="#507080"/>
  <rect x="412" y="245" width="18" height="18" fill="#7898b8"/>
  <rect x="432" y="245" width="18" height="18" fill="#204050"/>
  <rect x="452" y="245" width="18" height="18" fill="#2a4878"/>
  <rect x="472" y="245" width="18" height="18" fill="#9ea8b0"/>
  <rect x="492" y="245" width="18" height="18" fill="#504000"/>
  <rect x="512" y="245" width="18" height="18" fill="#88a8c0"/>
  <rect x="532" y="245" width="18" height="18" fill="#986820"/>
  <rect x="552" y="245" width="18" height="18" fill="#7090b0"/>
  <rect x="572" y="245" width="18" height="18" fill="#d89030"/>
  <rect x="592" y="245" width="18" height="18" fill="#505c74"/>
  <rect x="612" y="245" width="18" height="18" fill="#f0a64a"/>
  <rect x="632" y="245" width="18" height="18" fill="#4a5568"/>
  <rect x="652" y="245" width="18" height="18" fill="#f4a850"/>
  <rect x="672" y="245" width="18" height="18" fill="#4a5568"/>
  <rect x="692" y="245" width="18" height="18" fill="#f6ad55"/>

  <!-- Row 8 -->
  <rect x="392" y="265" width="18" height="18" fill="#6888a0"/>
  <rect x="412" y="265" width="18" height="18" fill="#8098b0"/>
  <rect x="432" y="265" width="18" height="18" fill="#203848"/>
  <rect x="452" y="265" width="18" height="18" fill="#384878"/>
  <rect x="472" y="265" width="18" height="18" fill="#9ca8b0"/>
  <rect x="492" y="265" width="18" height="18" fill="#383800"/>
  <rect x="512" y="265" width="18" height="18" fill="#90b0c0"/>
  <rect x="532" y="265" width="18" height="18" fill="#886018"/>
  <rect x="552" y="265" width="18" height="18" fill="#7898b8"/>
  <rect x="572" y="265" width="18" height="18" fill="#d08828"/>
  <rect x="592" y="265" width="18" height="18" fill="#525e78"/>
  <rect x="612" y="265" width="18" height="18" fill="#efa548"/>
  <rect x="632" y="265" width="18" height="18" fill="#4a5568"/>
  <rect x="652" y="265" width="18" height="18" fill="#f4a750"/>
  <rect x="672" y="265" width="18" height="18" fill="#4a5568"/>
  <rect x="692" y="265" width="18" height="18" fill="#f6ad55"/>

  <!-- Row 9 -->
  <rect x="392" y="285" width="18" height="18" fill="#7898b0"/>
  <rect x="412" y="285" width="18" height="18" fill="#7898a8"/>
  <rect x="432" y="285" width="18" height="18" fill="#2a3848"/>
  <rect x="452" y="285" width="18" height="18" fill="#404870"/>
  <rect x="472" y="285" width="18" height="18" fill="#98a8b0"/>
  <rect x="492" y="285" width="18" height="18" fill="#283000"/>
  <rect x="512" y="285" width="18" height="18" fill="#98b8c8"/>
  <rect x="532" y="285" width="18" height="18" fill="#786010"/>
  <rect x="552" y="285" width="18" height="18" fill="#80a0c0"/>
  <rect x="572" y="285" width="18" height="18" fill="#c88020"/>
  <rect x="592" y="285" width="18" height="18" fill="#546078"/>
  <rect x="612" y="285" width="18" height="18" fill="#eea446"/>
  <rect x="632" y="285" width="18" height="18" fill="#4a5568"/>
  <rect x="652" y="285" width="18" height="18" fill="#f3a64e"/>
  <rect x="672" y="285" width="18" height="18" fill="#4a5568"/>
  <rect x="692" y="285" width="18" height="18" fill="#f6ad55"/>

  <!-- Row 10 -->
  <rect x="392" y="305" width="18" height="18" fill="#88a8c0"/>
  <rect x="412" y="305" width="18" height="18" fill="#7090a0"/>
  <rect x="432" y="305" width="18" height="18" fill="#303848"/>
  <rect x="452" y="305" width="18" height="18" fill="#485068"/>
  <rect x="472" y="305" width="18" height="18" fill="#96a8b0"/>
  <rect x="492" y="305" width="18" height="18" fill="#182800"/>
  <rect x="512" y="305" width="18" height="18" fill="#a0c0c8"/>
  <rect x="532" y="305" width="18" height="18" fill="#686008"/>
  <rect x="552" y="305" width="18" height="18" fill="#88a8c0"/>
  <rect x="572" y="305" width="18" height="18" fill="#c07818"/>
  <rect x="592" y="305" width="18" height="18" fill="#566278"/>
  <rect x="612" y="305" width="18" height="18" fill="#eda344"/>
  <rect x="632" y="305" width="18" height="18" fill="#4a5568"/>
  <rect x="652" y="305" width="18" height="18" fill="#f3a54e"/>
  <rect x="672" y="305" width="18" height="18" fill="#4a5568"/>
  <rect x="692" y="305" width="18" height="18" fill="#f6ad55"/>

  <!-- Row 11 -->
  <rect x="392" y="325" width="18" height="18" fill="#90b0c0"/>
  <rect x="412" y="325" width="18" height="18" fill="#688898"/>
  <rect x="432" y="325" width="18" height="18" fill="#384050"/>
  <rect x="452" y="325" width="18" height="18" fill="#505068"/>
  <rect x="472" y="325" width="18" height="18" fill="#94a8b0"/>
  <rect x="492" y="325" width="18" height="18" fill="#0a2000"/>
  <rect x="512" y="325" width="18" height="18" fill="#a8c8d0"/>
  <rect x="532" y="325" width="18" height="18" fill="#586000"/>
  <rect x="552" y="325" width="18" height="18" fill="#90b0c8"/>
  <rect x="572" y="325" width="18" height="18" fill="#b87010"/>
  <rect x="592" y="325" width="18" height="18" fill="#587078"/>
  <rect x="612" y="325" width="18" height="18" fill="#eca242"/>
  <rect x="632" y="325" width="18" height="18" fill="#4a5568"/>
  <rect x="652" y="325" width="18" height="18" fill="#f2a44c"/>
  <rect x="672" y="325" width="18" height="18" fill="#4a5568"/>
  <rect x="692" y="325" width="18" height="18" fill="#f6ad55"/>

  <!-- Col labels -->
  <text x="401" y="358" text-anchor="middle" font-size="8" fill="#718096">d0</text>
  <text x="421" y="358" text-anchor="middle" font-size="8" fill="#718096">d1</text>
  <text x="441" y="358" text-anchor="middle" font-size="8" fill="#718096">d2</text>
  <text x="461" y="358" text-anchor="middle" font-size="8" fill="#718096">d3</text>
  <text x="501" y="358" text-anchor="middle" font-size="8" fill="#718096">...</text>
  <text x="631" y="358" text-anchor="middle" font-size="8" fill="#718096">d12</text>
  <text x="651" y="358" text-anchor="middle" font-size="8" fill="#718096">d13</text>
  <text x="671" y="358" text-anchor="middle" font-size="8" fill="#718096">d14</text>
  <text x="691" y="358" text-anchor="middle" font-size="8" fill="#718096">d15</text>

  <!-- Annotations -->
  <text x="401" y="374" text-anchor="middle" font-size="8" fill="#fc8181">high freq</text>
  <text x="681" y="374" text-anchor="middle" font-size="8" fill="#68d391">low freq</text>
  <line x1="392" y1="368" x2="710" y2="368" stroke="#2d3748" stroke-width="1"/>
  <line x1="392" y1="368" x2="430" y2="368" stroke="#fc8181" stroke-width="2"/>
  <line x1="670" y1="368" x2="710" y2="368" stroke="#68d391" stroke-width="2"/>

  <!-- ===== LEGEND ===== -->
  <rect x="20" y="395" width="760" height="90" rx="8" fill="#1a202c" stroke="#2d3748" stroke-width="1"/>
  <text x="400" y="414" text-anchor="middle" font-size="11" fill="#a0aec0" letter-spacing="1">KEY PROPERTIES OF POSITIONAL ENCODING</text>

  <rect x="36" y="426" width="10" height="10" rx="2" fill="#1a3050"/>
  <text x="52" y="436" font-size="10" fill="#e2e8f0">Dark blue = −1</text>
  <rect x="36" y="446" width="10" height="10" rx="2" fill="#4a5568"/>
  <text x="52" y="456" font-size="10" fill="#e2e8f0">Grey = 0</text>
  <rect x="36" y="466" width="10" height="10" rx="2" fill="#f6ad55"/>
  <text x="52" y="476" font-size="10" fill="#e2e8f0">Orange = +1</text>

  <text x="200" y="436" font-size="10" fill="#e2e8f0">Early dims: high-frequency → fine position detail</text>
  <text x="200" y="452" font-size="10" fill="#e2e8f0">Later dims: low-frequency → coarse position detail</text>
  <text x="200" y="468" font-size="10" fill="#e2e8f0">Each position has a unique vector (no two rows identical)</text>
  <text x="200" y="484" font-size="10" fill="#e2e8f0">No learned parameters — purely mathematical</text>

  <text x="560" y="436" font-size="10" fill="#68d391">✓ Works on unseen sequence lengths</text>
  <text x="560" y="452" font-size="10" fill="#68d391">✓ Relative distances are smooth &amp; consistent</text>
  <text x="560" y="468" font-size="10" fill="#68d391">✓ Values bounded in [−1, +1]</text>
  <text x="560" y="484" font-size="10" fill="#68d391">✓ Alternating sin/cos captures both phase+magnitude</text>
</svg>
